<svg width="34" height="35" viewBox="0 0 34 35" fill="none" xmlns="http://www.w3.org/2000/svg">
<path d="M33.5851 9.46699C33.032 8.9143 32.1379 8.9143 31.5848 9.46699L26.4197 14.6278C25.4139 14.0949 24.2765 13.6581 23.1192 13.4687L33.537 3.05946C34.0902 2.50677 34.0902 1.61341 33.537 1.06072C32.9839 0.508034 32.0898 0.508034 31.5367 1.06072L21.1189 11.47C20.9279 10.2996 20.4808 9.15036 19.9404 8.13686L25.097 2.98454C25.6501 2.43185 25.6501 1.5385 25.097 0.985807C24.5438 0.433116 23.6498 0.433116 23.0966 0.985807L18.3135 5.76495C17.2172 4.62141 15.1687 4.65533 14.1303 5.86814C13.1542 7.00886 12.0535 8.81394 11.5697 10.742C10.5044 10.3858 9.22414 10.6445 8.47153 11.5223C7.49539 12.663 6.39476 14.4681 5.91094 16.3961C4.84567 16.0399 3.56538 16.2986 2.81276 17.1764C1.51549 18.6917 0.000353658 21.3802 0.000353658 23.9698C0.000353658 26.6697 1.36836 28.9666 2.32894 30.2459L0.414858 32.1584C-0.138286 32.7111 -0.138286 33.6044 0.414858 34.1571C0.690723 34.4328 1.05288 34.5713 1.41505 34.5713C1.77721 34.5713 2.13937 34.4328 2.41523 34.1571L4.32931 32.2446C5.61102 33.2044 7.90848 34.5713 10.6105 34.5713C13.2023 34.5713 15.8916 33.0574 17.4096 31.7612C18.0334 31.2269 18.3913 30.448 18.3913 29.6239C18.3913 29.2903 18.3319 28.9638 18.2202 28.6585C20.1385 28.1708 21.9323 27.0782 23.0683 26.1071C23.6922 25.5728 24.0501 24.7939 24.0501 23.9698C24.0501 23.6362 23.9907 23.3097 23.8789 23.0044C25.7973 22.5167 27.5911 21.424 28.7271 20.4529C29.351 19.9186 29.7089 19.1398 29.7089 18.3157C29.7089 17.5255 29.3793 16.7778 28.8007 16.2463L33.5851 11.4657C34.1383 10.913 34.1383 10.0197 33.5851 9.46699ZM16.258 7.70714C17.2865 8.90723 18.3913 10.9682 18.3913 12.6616C18.3913 13.9253 17.6967 14.8455 17.5963 14.9911L15.4615 17.1241C15.2564 15.8731 14.7612 14.6448 14.1685 13.5818C14.1869 13.4645 14.1473 12.8496 14.1473 12.6616C14.1473 10.9682 15.2521 8.90723 16.258 7.70714ZM10.5992 13.3613C11.6277 14.5614 12.7326 16.6223 12.7326 18.3157C12.7326 19.5794 12.038 20.4996 11.9375 20.6452L9.80275 22.7782C9.59762 21.5272 9.10248 20.2989 8.50973 19.2359C8.52812 19.1186 8.48851 18.5037 8.48851 18.3157C8.48851 16.6223 9.59338 14.5614 10.5992 13.3613ZM4.94046 19.0154C5.96894 20.2155 7.07381 22.2764 7.07381 23.9698C7.07381 25.2335 6.3792 26.1537 6.27876 26.2993L4.35478 28.2217C3.66582 27.2294 2.82974 25.6759 2.82974 23.9698C2.82974 22.2764 3.93461 20.2155 4.94046 19.0154ZM10.6105 31.7442C8.90301 31.7442 7.34685 30.9074 6.35515 30.2204L8.27913 28.298C8.42343 28.1977 9.34581 27.5036 10.6105 27.5036C12.3053 27.5036 14.368 28.6076 15.569 29.6126C14.368 30.6403 12.3053 31.7442 10.6105 31.7442ZM16.2693 26.0901C16.0812 26.0901 15.4629 26.0491 15.3427 26.0661C14.2803 25.4752 13.0523 24.9805 11.8031 24.7769L13.9379 22.6439C14.0822 22.5436 15.0046 21.8495 16.2693 21.8495C17.9641 21.8495 20.0267 22.9535 21.2278 23.9585C20.0267 24.9861 17.9641 26.0901 16.2693 26.0901ZM21.9281 20.436C21.7399 20.436 21.1217 20.395 21.0029 20.4134C19.9404 19.8225 18.7125 19.3278 17.4619 19.1228L19.5967 16.9898C19.741 16.8894 20.6633 16.1954 21.9281 16.1954C23.6229 16.1954 25.6855 17.2994 26.8866 18.3044C25.6855 19.332 23.6229 20.436 21.9281 20.436Z" fill="#ED3B39"/>
</svg>
