<svg width="34" height="31" viewBox="0 0 34 31" fill="none" xmlns="http://www.w3.org/2000/svg">
<path d="M26.625 0.571289H7.375C5.55231 0.573454 3.80489 1.29249 2.51605 2.57068C1.22721 3.84887 0.502183 5.58184 0.5 7.38947L0.5 18.2986C0.502183 20.1062 1.22721 21.8392 2.51605 23.1174C3.80489 24.3955 5.55231 25.1146 7.375 25.1167H15.625V27.844H10.125C9.76033 27.844 9.41059 27.9877 9.15273 28.2434C8.89487 28.4991 8.75 28.846 8.75 29.2077C8.75 29.5693 8.89487 29.9162 9.15273 30.1719C9.41059 30.4276 9.76033 30.5713 10.125 30.5713H23.875C24.2397 30.5713 24.5894 30.4276 24.8473 30.1719C25.1051 29.9162 25.25 29.5693 25.25 29.2077C25.25 28.846 25.1051 28.4991 24.8473 28.2434C24.5894 27.9877 24.2397 27.844 23.875 27.844H18.375V25.1167H26.625C28.4477 25.1146 30.1951 24.3955 31.4839 23.1174C32.7728 21.8392 33.4978 20.1062 33.5 18.2986V7.38947C33.4978 5.58184 32.7728 3.84887 31.4839 2.57068C30.1951 1.29249 28.4477 0.573454 26.625 0.571289ZM30.75 18.2986C30.75 19.3835 30.3154 20.4241 29.5418 21.1913C28.7682 21.9585 27.719 22.3895 26.625 22.3895H7.375C6.28098 22.3895 5.23177 21.9585 4.45818 21.1913C3.6846 20.4241 3.25 19.3835 3.25 18.2986V7.38947C3.25 6.30449 3.6846 5.26396 4.45818 4.49676C5.23177 3.72957 6.28098 3.29856 7.375 3.29856H26.625C27.719 3.29856 28.7682 3.72957 29.5418 4.49676C30.3154 5.26396 30.75 6.30449 30.75 7.38947V18.2986ZM28 12.844C28 13.2057 27.8551 13.5525 27.5973 13.8083C27.3394 14.064 26.9897 14.2077 26.625 14.2077H22.5481L20.2106 17.6917C20.0846 17.879 19.9138 18.0325 19.7135 18.1383C19.5132 18.2442 19.2895 18.2993 19.0625 18.2986C19.0336 18.2986 19.0047 18.2986 18.9772 18.2986C18.7367 18.2839 18.5042 18.2067 18.3032 18.0748C18.1022 17.943 17.9396 17.761 17.8319 17.5472L14.767 11.464L13.3315 13.6008C13.2059 13.7875 13.0358 13.9406 12.8362 14.0465C12.6366 14.1523 12.4138 14.2077 12.1875 14.2077H7.375C7.01033 14.2077 6.66059 14.064 6.40273 13.8083C6.14487 13.5525 6 13.2057 6 12.844C6 12.4824 6.14487 12.1355 6.40273 11.8798C6.66059 11.624 7.01033 11.4804 7.375 11.4804H11.4519L13.7894 7.99629C13.9217 7.79524 14.1058 7.63295 14.3227 7.52625C14.5396 7.41955 14.7813 7.37233 15.0228 7.38947C15.2633 7.40417 15.4958 7.48132 15.6968 7.61319C15.8978 7.74506 16.0604 7.92702 16.1681 8.14083L19.233 14.2213L20.6685 12.0845C20.7944 11.8983 20.9647 11.7457 21.1642 11.6404C21.3638 11.535 21.5864 11.48 21.8125 11.4804H26.625C26.9897 11.4804 27.3394 11.624 27.5973 11.8798C27.8551 12.1355 28 12.4824 28 12.844Z" fill="#ED3B39"/>
</svg>
