<svg width="40" height="41" viewBox="0 0 40 41" fill="none" xmlns="http://www.w3.org/2000/svg">
<path d="M34.7646 14.1611C35.9708 14.1032 37.1062 14.4871 38.0205 15.2432L38.2002 15.3994C40.1223 17.1517 40.2779 20.1573 38.5469 22.0967L27.2051 34.8252C24.0919 38.3185 19.6239 40.3213 14.9443 40.3213H6.66797C3.12865 40.3213 0.25 37.4428 0.25 33.9043V25.5713C0.25 22.0327 3.12865 19.1543 6.66797 19.1543H21.4326C23.24 19.1544 24.8277 20.1206 25.7012 21.5654L25.874 21.8525L26.0996 21.6045L31.4619 15.7148L31.4629 15.7139C32.2649 14.8305 33.3458 14.2901 34.5273 14.1777L34.7646 14.1611ZM34.9053 16.9893L34.8994 16.9902C34.3846 17.015 33.9071 17.2366 33.5615 17.6201L26.1816 25.7275L26.1484 25.7646L26.1318 25.8115C25.5568 27.4052 24.1895 28.648 22.4854 29.0166L22.1406 29.0791L13.5391 30.3066C12.8079 30.4054 12.1334 29.9418 11.9609 29.248L11.9326 29.1055C11.8294 28.3794 12.296 27.704 12.9932 27.5312L13.1357 27.5039L21.7393 26.2754C22.7944 26.1244 23.5879 25.2085 23.5879 24.1426C23.5877 22.9545 22.6203 21.9894 21.4326 21.9893H6.66992C4.69322 21.9893 3.08594 23.5968 3.08594 25.5732V33.9062C3.08594 35.8827 4.69322 37.4893 6.66992 37.4893H14.9463C18.6956 37.4892 22.2821 35.9344 24.8447 33.21L25.0898 32.9424L36.4336 20.2129C37.1359 19.4266 37.0747 18.2142 36.3027 17.501H36.3037L36.3018 17.5L36.3008 17.499H36.3018L36.293 17.4912L36.1445 17.3691C35.8376 17.1418 35.4754 17.0169 35.0957 16.9932L34.9053 16.9893ZM36.1562 17.6445L36.125 17.6768L36.1582 17.6426L36.1562 17.6445ZM13.3379 10.8213C15.5637 10.8215 17.4358 12.2797 18.0166 14.2637L18.0693 14.458C18.1734 14.8791 17.8181 15.3213 17.3262 15.3213H9.34863C8.88873 15.3213 8.547 14.9325 8.5918 14.5371L8.60547 14.458H8.60645C9.11883 12.3757 11.0399 10.8213 13.3379 10.8213ZM21.7861 9.1543C23.9549 9.15449 25.7858 10.6091 26.3545 12.5957L26.4053 12.79C26.5088 13.2183 26.1547 13.6543 25.6846 13.6543H21.9219V13.0713C21.9219 11.5775 21.3782 10.2124 20.4824 9.1543H21.7861ZM4.88965 9.1543H6.19238C5.29662 10.2124 4.75293 11.5775 4.75293 13.0713V13.6543H0.990234C0.54943 13.6543 0.211013 13.271 0.255859 12.8701L0.269531 12.79C0.771548 10.7048 2.65073 9.1543 4.88965 9.1543ZM13.3379 2.48828C15.0417 2.48851 16.4219 3.86788 16.4219 5.57129C16.4219 7.2747 15.0417 8.65407 13.3379 8.6543C11.6339 8.6543 10.2539 7.27484 10.2539 5.57129C10.2539 3.86774 11.6339 2.48828 13.3379 2.48828ZM5.00293 0.821289C6.70665 0.821471 8.08674 2.20101 8.08691 3.9043C8.08691 5.60774 6.70676 6.9881 5.00293 6.98828C3.29895 6.98828 1.91895 5.60785 1.91895 3.9043C1.91912 2.20089 3.29906 0.821289 5.00293 0.821289ZM21.6719 0.821289C23.3757 0.821289 24.7557 2.20089 24.7559 3.9043C24.7559 5.60785 23.3759 6.98828 21.6719 6.98828C19.9681 6.98802 18.5889 5.60769 18.5889 3.9043C18.589 2.20105 19.9682 0.821545 21.6719 0.821289Z" fill="#ED3B39" stroke="white" stroke-width="0.5"/>
</svg>
