<svg width="40" height="41" viewBox="0 0 40 41" fill="none" xmlns="http://www.w3.org/2000/svg">
<path d="M20 0.821289C22.4714 0.821289 24.8112 1.83857 26.4941 3.62891L26.8223 3.99707L26.9082 4.09961L27.041 4.08496C29.3645 3.82461 31.7766 4.62699 33.6064 6.26562L33.9648 6.60449C35.8293 8.46897 36.77 11.0469 36.543 13.6768L36.5312 13.8096L36.6357 13.8936C38.5908 15.4499 39.75 17.9326 39.75 20.5713C39.75 23.2075 38.5928 25.6944 36.5742 27.3936L36.4717 27.4795L36.4863 27.6123C36.7497 29.9386 35.9448 32.348 34.3057 34.1777L33.9668 34.5361C32.1008 36.4006 29.5231 37.338 26.8945 37.1143L26.7607 37.1025L26.6777 37.207C25.1214 39.1621 22.6386 40.3213 20 40.3213C17.3638 40.3213 14.8769 39.1641 13.1777 37.1455L13.0908 37.042L12.958 37.0576C10.6421 37.3284 8.22462 36.5173 6.39355 34.877L6.03516 34.5381C4.17068 32.6736 3.23004 30.0956 3.45703 27.4658L3.46875 27.333L3.36426 27.249C1.40917 25.6927 0.25 23.2099 0.25 20.5713C0.25 17.9351 1.40719 15.4482 3.42578 13.749L3.52832 13.6631L3.51367 13.5303C3.25032 11.204 4.0552 8.79454 5.69434 6.96484L6.0332 6.60645C7.89799 4.74166 10.4722 3.79496 13.1045 4.02832L13.2383 4.04004L13.3223 3.93555C14.8786 1.98046 17.3614 0.821289 20 0.821289ZM20 3.6543C18.3152 3.6543 16.7176 4.35001 15.5693 5.57227L15.3457 5.82324C14.7247 6.55766 13.8137 6.91951 12.8594 6.85156H12.8584C11.1761 6.71273 9.52925 7.26322 8.28223 8.37891L8.03809 8.60938C6.84525 9.80221 6.20866 11.4231 6.25977 13.0986L6.2793 13.4346C6.35707 14.3335 6.0332 15.1825 5.38574 15.7969L5.25195 15.917C3.87424 17.0777 3.08301 18.7761 3.08301 20.5732C3.08309 22.258 3.7787 23.8557 5.00098 25.0039L5.25195 25.2275C5.94389 25.8114 6.31462 26.6396 6.29102 27.5312L6.28125 27.71C6.13629 29.3913 6.691 31.042 7.80762 32.29L8.03809 32.5342V32.5352C9.23223 33.7277 10.8576 34.3657 12.5283 34.3135L12.8633 34.2939H12.8643C12.9485 34.2864 13.0357 34.2832 13.123 34.2832C13.9823 34.2832 14.7793 34.6522 15.3438 35.3213V35.3203C16.5045 36.6982 18.2027 37.4893 20 37.4893C21.797 37.4893 23.4942 36.6981 24.6533 35.3203L24.6543 35.3213C25.2764 34.5856 26.1733 34.2133 27.1357 34.291V34.292C28.9391 34.4555 30.692 33.805 31.9619 32.5352C33.1547 31.3424 33.7913 29.7213 33.7402 28.0459L33.7207 27.71C33.6429 26.8109 33.9666 25.9611 34.6143 25.3467L34.748 25.2275C36.1257 24.0669 36.918 22.3686 36.918 20.5713C36.918 18.7741 36.1271 17.0761 34.749 15.917H34.75C34.0581 15.3332 33.6874 14.5049 33.7109 13.6133L33.7207 13.4346C33.8657 11.7531 33.3111 10.1016 32.1943 8.85352L31.9639 8.60938H31.9629C30.7698 7.41806 29.1511 6.78618 27.4756 6.83203L27.1396 6.85059C26.2452 6.92416 25.3899 6.60357 24.7754 5.95703L24.6562 5.82324C23.4955 4.44544 21.7972 3.6543 20 3.6543ZM20 11.9883C19.8931 11.9883 19.7861 12.0176 19.6914 12.0752L19.6016 12.1426H19.6006C18.5931 13.0517 17.387 14.4513 16.4307 15.9678C15.4791 17.4768 14.75 19.1405 14.75 20.5713C14.75 22.8522 16.2197 24.7762 18.249 25.5L18.583 25.6191V18.9043C18.5832 18.1225 19.2182 17.4883 20 17.4883C20.7818 17.4883 21.4168 18.1225 21.417 18.9043V25.6191L21.751 25.5C23.7803 24.7762 25.25 22.8522 25.25 20.5713C25.25 19.1397 24.5209 17.4758 23.5693 15.9668C22.7324 14.6396 21.7042 13.4021 20.7852 12.5039L20.3994 12.1406L20.3965 12.1377L20.3076 12.0732C20.2143 12.0173 20.1084 11.9883 20 11.9883ZM18.583 28.5322L18.3838 28.4912C14.6993 27.7394 11.917 24.4732 11.917 20.5713C11.917 18.496 12.8481 16.3225 14.0508 14.4248C15.1009 12.7678 16.3436 11.3428 17.3076 10.4082L17.7021 10.0381C19.0118 8.8558 20.9859 8.85803 22.2959 10.0391V10.0381C23.2965 10.941 24.7489 12.5322 25.9492 14.4258C27.152 16.3232 28.083 18.4962 28.083 20.5713C28.083 24.4748 25.3008 27.7394 21.6162 28.4912L21.417 28.5322V30.5713C21.417 31.3532 20.7819 31.9883 20 31.9883C19.2181 31.9883 18.583 31.3532 18.583 30.5713V28.5322Z" fill="#ED3B39" stroke="white" stroke-width="0.5"/>
</svg>
