<svg width="34" height="35" viewBox="0 0 34 35" fill="none" xmlns="http://www.w3.org/2000/svg">
<path d="M33.0366 6.37962C32.2291 5.38796 31.025 4.82129 29.75 4.82129H10.2567L10.2 4.32546C9.94499 2.18629 8.13166 0.571289 5.97833 0.571289H4.24999C3.47083 0.571289 2.83333 1.20879 2.83333 1.98796C2.83333 2.76712 3.47083 3.40462 4.24999 3.40462H5.97833C6.70082 3.40462 7.29582 3.94296 7.38082 4.65129L9.33582 21.2263C9.76082 24.7963 12.7783 27.488 16.3766 27.488H28.3333C29.1125 27.488 29.75 26.8505 29.75 26.0713C29.75 25.2921 29.1125 24.6546 28.3333 24.6546H16.3766C14.5491 24.6546 12.9625 23.493 12.3675 21.8213H25.7266C29.0983 21.8213 32.0166 19.4271 32.6683 16.1263L33.915 9.90712C34.17 8.66046 33.8441 7.37129 33.0366 6.37962ZM31.1383 9.35462L29.8916 15.5738C29.495 17.5571 27.7383 18.988 25.7266 18.988H11.9283L10.5967 7.65462H29.75C30.175 7.65462 30.5716 7.83879 30.8408 8.17879C31.11 8.50462 31.2233 8.94379 31.1383 9.35462ZM15.5833 31.738C15.5833 33.2963 14.3083 34.5713 12.75 34.5713C11.1917 34.5713 9.91665 33.2963 9.91665 31.738C9.91665 30.1796 11.1917 28.9046 12.75 28.9046C14.3083 28.9046 15.5833 30.1796 15.5833 31.738ZM28.3333 31.738C28.3333 33.2963 27.0583 34.5713 25.5 34.5713C23.9416 34.5713 22.6666 33.2963 22.6666 31.738C22.6666 30.1796 23.9416 28.9046 25.5 28.9046C27.0583 28.9046 28.3333 30.1796 28.3333 31.738ZM0 9.07129C0 8.29212 0.637499 7.65462 1.41666 7.65462H3.59833C4.37749 7.65462 5.01499 8.29212 5.01499 9.07129C5.01499 9.85046 4.37749 10.488 3.59833 10.488H1.41666C0.637499 10.488 0 9.85046 0 9.07129ZM0 14.738C0 13.9588 0.637499 13.3213 1.41666 13.3213H4.24999C5.02916 13.3213 5.66666 13.9588 5.66666 14.738C5.66666 15.5171 5.02916 16.1546 4.24999 16.1546H1.41666C0.637499 16.1546 0 15.5171 0 14.738ZM7.08332 20.4046C7.08332 21.1838 6.44583 21.8213 5.66666 21.8213H1.41666C0.637499 21.8213 0 21.1838 0 20.4046C0 19.6255 0.637499 18.988 1.41666 18.988H5.66666C6.44583 18.988 7.08332 19.6255 7.08332 20.4046Z" fill="#ED3B39"/>
</svg>
