<svg width="34" height="35" viewBox="0 0 34 35" fill="none" xmlns="http://www.w3.org/2000/svg">
<path d="M32.856 17.0117C32.1035 16.0069 31.0343 15.285 29.8211 14.9626C30.4124 13.2438 30.8494 11.4757 31.1268 9.67924C31.2175 9.02623 31.1553 8.3611 30.9452 7.73621C30.7351 7.11132 30.3828 6.54372 29.916 6.0781C29.4492 5.61248 28.8808 5.26154 28.2553 5.05293C27.6299 4.84431 26.9645 4.7837 26.3117 4.87588C26.1333 4.89995 25.6036 4.97784 24.8799 5.11803C25.328 4.126 25.5403 3.0437 25.5002 1.95591C25.4943 1.76995 25.4517 1.58698 25.3751 1.41745C25.2984 1.24792 25.1891 1.09515 25.0534 0.967863C24.9177 0.840575 24.7582 0.741263 24.5841 0.675596C24.41 0.609929 24.2247 0.579193 24.0387 0.585144C23.8527 0.591095 23.6697 0.633616 23.5002 0.710278C23.3306 0.786941 23.1778 0.896244 23.0505 1.03195C22.9232 1.16765 22.8239 1.3271 22.7583 1.50118C22.6926 1.67527 22.6618 1.86058 22.6678 2.04654C22.6919 2.73061 22.5516 3.41048 22.2585 4.02906C22.0537 3.4763 21.7615 2.95996 21.3932 2.49969C20.7672 1.78725 19.9725 1.24313 19.0818 0.917079C18.1911 0.591029 17.233 0.493458 16.2948 0.633291C15.2662 0.71585 14.283 1.09238 13.4624 1.71801C12.5347 1.02016 11.4124 0.629085 10.2519 0.599305C8.77929 0.456593 7.31014 0.903154 6.16612 1.84121C5.58523 2.35832 5.11622 2.98874 4.78793 3.69374C4.45963 4.39873 4.27898 5.16341 4.25707 5.94077C4.2182 7.18554 4.58065 8.40981 5.2909 9.43284C4.42687 10.1736 3.75616 11.1135 3.33671 12.1714C2.91725 13.2294 2.76165 14.3735 2.88334 15.505C1.76334 16.1291 0.890515 17.1174 0.409805 18.306C-0.0709055 19.4945 -0.130578 20.8117 0.240697 22.0388C1.21081 25.4141 3.01644 28.4902 5.49059 30.9828C7.86416 33.297 11.0522 34.5858 14.3674 34.5712H19.6385C22.9533 34.586 26.141 33.2972 28.5139 30.9828C30.989 28.4907 32.7951 25.4144 33.7652 22.0388C34.0181 21.1882 34.0675 20.2902 33.9096 19.417C33.7516 18.5438 33.3908 17.7199 32.856 17.0117ZM26.7054 7.67973C26.9246 7.65016 27.1476 7.67165 27.3571 7.74253C27.5666 7.81341 27.7568 7.93176 27.913 8.08833C28.0692 8.2449 28.187 8.43545 28.2574 8.6451C28.3277 8.85475 28.3486 9.07783 28.3185 9.29689C28.0215 11.1565 27.5399 12.9819 26.881 14.746H23.2541L25.0853 12.915C25.3432 12.6479 25.486 12.2902 25.4828 11.9189C25.4795 11.5476 25.3306 11.1924 25.068 10.9299C24.8054 10.6673 24.4502 10.5184 24.0789 10.5152C23.7076 10.512 23.3498 10.6547 23.0827 10.9126L19.2491 14.746H17.0554C16.9519 14.0012 17.0229 13.2426 17.2628 12.5299C17.5027 11.8172 17.9048 11.17 18.4376 10.6393C19.0423 10.029 21.3606 8.37361 26.7054 7.67973ZM7.08949 6.03565C7.098 5.6458 7.1859 5.26177 7.34783 4.90703C7.50975 4.55229 7.7423 4.23428 8.03127 3.97242C8.61556 3.54057 9.34142 3.34534 10.0635 3.42581C10.4123 3.41147 10.7602 3.47105 11.0843 3.60064C11.4085 3.73023 11.7015 3.92691 11.9443 4.17775C12.1353 4.39124 12.3693 4.56201 12.6309 4.6789C12.8926 4.79578 13.1759 4.85615 13.4624 4.85605C13.7483 4.85464 14.0307 4.79315 14.2913 4.67556C14.5518 4.55797 14.7848 4.38692 14.9749 4.1735C15.1862 3.95009 15.4396 3.77083 15.7207 3.64613C16.0017 3.52143 16.3047 3.45376 16.6121 3.44705C17.0802 3.36367 17.5617 3.39764 18.0135 3.54591C18.4653 3.69419 18.8733 3.95215 19.2009 4.2967C19.6308 4.84705 19.8552 5.53017 19.8354 6.22824C19.8354 6.32028 19.8354 6.52137 19.8354 6.52137C17.9553 7.19829 16.3494 8.47331 15.2638 10.1508C14.3696 9.09223 13.1797 8.32462 11.8466 7.94621C10.5135 7.5678 9.09771 7.59581 7.7806 8.02667C7.31062 7.47203 7.06422 6.76217 7.08949 6.03565ZM5.67328 14.746C5.67328 13.6193 6.1209 12.5387 6.91767 11.742C7.71444 10.9453 8.7951 10.4977 9.92191 10.4977C11.0487 10.4977 12.1294 10.9453 12.9261 11.742C13.7229 12.5387 14.1705 13.6193 14.1705 14.746H5.67328ZM31.0461 21.2444C30.1999 24.1575 28.6426 26.8145 26.5142 28.9762C24.6739 30.764 22.2043 31.7564 19.6385 31.739H14.3674C11.8009 31.7558 9.33059 30.7636 7.48886 28.9762C5.36042 26.8146 3.80305 24.1575 2.95699 21.2444C2.83002 20.8157 2.8054 20.3631 2.88509 19.9231C2.96478 19.4832 3.14656 19.068 3.41584 18.711C3.67711 18.3586 4.01751 18.0725 4.40962 17.8757C4.80172 17.679 5.23456 17.577 5.67328 17.5782H28.3326C28.7728 17.5757 29.2073 17.677 29.601 17.8738C29.9947 18.0706 30.3364 18.3575 30.5986 18.711C30.8659 19.069 31.0457 19.4846 31.1234 19.9245C31.2011 20.3645 31.1746 20.8165 31.0461 21.2444Z" fill="#ED3B39"/>
</svg>
