<svg width="34" height="35" viewBox="0 0 34 35" fill="none" xmlns="http://www.w3.org/2000/svg">
<path d="M32.5408 9.42687C31.6384 8.92537 30.5363 8.95796 29.5658 9.56996L22.6667 14.7394V11.9046C22.6667 10.8747 22.1071 9.92554 21.2075 9.42687C20.3051 8.92537 19.2015 8.95796 18.2325 9.56996L11.3333 14.7394V3.40462C12.1167 3.40462 12.75 2.76996 12.75 1.98796C12.75 1.20596 12.1167 0.571289 11.3333 0.571289H1.41667C0.63325 0.571289 0 1.20596 0 1.98796C0 2.76996 0.63325 3.40462 1.41667 3.40462V27.488C1.41667 31.3937 4.59425 34.5713 8.5 34.5713H26.9167C30.8224 34.5713 34 31.3937 34 27.488V11.9046C34 10.8747 33.4404 9.92554 32.5408 9.42687ZM31.1667 27.488C31.1667 29.8311 29.2598 31.738 26.9167 31.738H8.5C6.15683 31.738 4.25 29.8311 4.25 27.488V3.40462H8.5V17.5585C8.5 17.5685 8.5 17.5784 8.5 17.5869V26.0713C8.5 26.8533 9.13325 27.488 9.91667 27.488C10.7001 27.488 11.3333 26.8533 11.3333 26.0713V18.2796L19.8333 11.9046V17.5713C19.8333 18.1082 20.1365 18.5984 20.6168 18.8392C21.097 19.08 21.6693 19.029 22.1 18.706L31.1667 11.906V27.488ZM19.8333 24.6546V26.0713C19.8333 26.8533 19.1987 27.488 18.4167 27.488H17C16.218 27.488 15.5833 26.8533 15.5833 26.0713V24.6546C15.5833 23.8726 16.218 23.238 17 23.238H18.4167C19.1987 23.238 19.8333 23.8726 19.8333 24.6546ZM22.6667 26.0713V24.6546C22.6667 23.8726 23.3013 23.238 24.0833 23.238H25.5C26.282 23.238 26.9167 23.8726 26.9167 24.6546V26.0713C26.9167 26.8533 26.282 27.488 25.5 27.488H24.0833C23.3013 27.488 22.6667 26.8533 22.6667 26.0713Z" fill="#ED3B39"/>
</svg>
