<svg width="40" height="43" viewBox="0 0 40 43" fill="none" xmlns="http://www.w3.org/2000/svg">
<path d="M9.89746 0.822266H10.7471C11.5155 0.822266 12.2577 1.10507 12.832 1.61621L12.9443 1.72168L13.7373 2.5L13.8105 2.57227H14.9316C16.15 2.57239 17.1404 3.56603 17.1406 4.7959C17.1406 5.31264 16.9617 5.81135 16.6396 6.20703L16.4932 6.37012L15.4736 7.39551L15.2725 7.59863L15.501 7.77148L17.4727 9.26074C18.1943 9.80498 18.448 10.7691 18.1074 11.5947L18.0312 11.7578L17.9932 11.8311L17.8633 12.0811L18.126 12.1807L25.083 14.8057L25.2031 14.8506L25.3096 14.7793L26.1621 14.209C27.0211 13.6317 28.1566 13.6977 28.9434 14.3604L29.0957 14.501L29.3408 14.748L29.4863 14.8936L29.6572 14.7803L33.8789 11.9707H33.8799C34.5168 11.5469 35.263 11.3214 36.0273 11.3213H38.2002C38.9554 11.3215 39.6095 11.8594 39.7295 12.5752L39.7471 12.7207C39.8038 13.5972 39.1139 14.3212 38.2607 14.3213H36.2236L36.2266 14.5752L36.2539 16.8203C36.2642 17.5215 36.1711 18.2207 35.9785 18.8945L35.8896 19.1816L34.8877 22.2051C34.7161 22.723 34.2356 23.0693 33.6973 23.0693H33.6885L33.6797 23.0703C33.4116 23.0893 33.1624 22.9749 32.9111 22.7725C32.6555 22.5664 32.434 22.3002 32.208 22.0508L32.1914 22.0332L32.1719 22.0186L32.0166 21.8877C31.2923 21.1972 31.3442 19.9897 32.1719 19.373L32.1904 19.3594L32.2061 19.3428L33.2266 18.2412L33.6162 17.8213H29.3154V22.6045C29.3152 23.8309 28.3283 24.8213 27.1133 24.8213H26.8018L26.7334 24.96L25.0195 28.4082L20.7188 31.6924L20.6152 31.7715L20.6201 31.9023V31.9033C20.6202 31.9047 20.621 31.907 20.6211 31.9102V32.0703C20.6194 32.1837 20.6133 32.3511 20.5957 32.5615C20.5606 32.9825 20.4797 33.5759 20.2949 34.2598C19.9252 35.628 19.1431 37.3523 17.4951 38.792L17.4609 38.8223L17.4395 38.8623L16.1455 41.2842V41.2852C15.8044 41.9247 15.143 42.3212 14.4238 42.3213C13.4276 42.3213 12.5997 41.5689 12.4824 40.5908L12.4688 40.3926L12.4229 38.1914L12.4209 38.1016L12.3623 38.0332L7.89648 32.8574C7.46587 32.0947 7.17966 31.2666 7.0498 30.4033L7.00293 30.0283V30.0273C6.9308 29.2867 6.80192 28.4704 6.67285 27.6299C6.54325 26.7859 6.41341 25.9133 6.33594 25.0488L6.31543 24.8213H2.93066C2.29902 24.8213 1.68924 24.5969 1.20898 24.1914L1.01074 24.0068C0.523793 23.5022 0.250059 22.8262 0.25 22.123C0.25 20.9892 1.16411 20.0713 2.28711 20.0713H2.61719C3.48115 20.0713 3.99219 19.1437 3.60059 18.4209L3.50977 18.2793L2.2002 16.5225H2.20117C2.06414 16.3377 1.98926 16.1132 1.98926 15.8838C1.98946 15.2962 2.46283 14.8215 3.04297 14.8213H5.30957L5.38086 14.7607L11.4668 9.51074L11.7158 9.29688L11.4434 9.11426L9.59082 7.87207V7.87109C9.12144 7.55655 8.86897 6.98832 8.96582 6.40918L8.99023 6.29297C9.15185 5.64497 9.76149 5.19727 10.4434 5.19727H11.9043L11.4814 4.77051L9.22559 2.49902L9.2207 2.49414L9.12305 2.38379C8.91969 2.11153 8.89656 1.75018 9.02441 1.43164C9.16996 1.06911 9.49124 0.808741 9.89746 0.821289V0.822266ZM17.6416 32.0322C17.5978 31.0327 18.0141 30.075 18.7617 29.4277L18.916 29.3018L22.6182 26.4746L22.665 26.4385L22.6904 26.3867L24.0674 23.6162H24.0684C24.4914 22.7651 25.2578 22.1561 26.1484 21.9238L26.335 21.875L26.3359 21.6816V21.1045C26.3363 20.7576 26.3365 20.2943 26.3369 19.8301C26.3378 18.9016 26.3389 17.9675 26.3389 17.9473V17.6191L26.0225 17.7061C25.7448 17.7824 25.4596 17.8213 25.1729 17.8213C24.8862 17.8213 24.5992 17.7835 24.3184 17.7061L24.04 17.6152L17.084 14.9902C16.2701 14.6827 15.6157 14.06 15.2656 13.2656L15.2002 13.1045V13.1035C14.9856 12.5383 14.9347 11.9306 15.043 11.3467L15.0713 11.1943L14.9482 11.1016L14.5186 10.7773L14.2842 10.6016L14.1475 10.8604C14.0084 11.122 13.8325 11.3643 13.624 11.5811L13.4043 11.7891L7.31836 17.0391C7.11773 17.2116 6.89922 17.3579 6.66895 17.4746L6.48242 17.5684L6.54297 17.7686C6.81953 18.6931 6.76486 19.6981 6.36328 20.6123L6.27832 20.7939C6.16643 21.0191 6.03844 21.2287 5.89453 21.4229L5.59961 21.8203L6.09473 21.8213C7.65635 21.8243 8.97696 22.9502 9.25977 24.4697L9.30176 24.7793C9.33915 25.2032 9.48791 26.2566 9.63477 27.2891C9.74598 28.071 9.85629 28.8415 9.91992 29.3379L9.96582 29.7334H9.9668C10.0148 30.2149 10.1423 30.6774 10.3496 31.1133L10.3643 31.1436L10.3857 31.1689L14.6094 36.0625V36.0635C14.7564 36.2342 14.8848 36.418 14.9932 36.6133L15.1514 36.8994L15.3857 36.6709L15.5391 36.5283L15.541 36.5264C16.6007 35.5998 17.1251 34.4859 17.3848 33.6055C17.5146 33.165 17.5796 32.7806 17.6113 32.5039C17.6272 32.3654 17.6348 32.2529 17.6387 32.1738C17.6406 32.1345 17.6412 32.1033 17.6416 32.0811C17.6418 32.07 17.6425 32.0612 17.6426 32.0547V32.043L17.6416 32.0322Z" fill="#ED3B39" stroke="white" stroke-width="0.5"/>
</svg>
