<svg width="34" height="35" viewBox="0 0 34 35" fill="none" xmlns="http://www.w3.org/2000/svg">
<path d="M32.8666 20.9469L25.3213 6.76869C23.2264 2.94967 18.7562 1.15066 14.6543 2.36039C13.1274 1.23565 11.2435 0.571289 9.20672 0.571289C4.13028 0.571289 0 4.70194 0 9.77886V25.3609C0 30.4378 4.13028 34.5685 9.20672 34.5685C12.4815 34.5685 15.3625 32.8488 16.9956 30.265C18.1939 32.1745 20.0267 33.5613 22.2095 34.1987C23.0636 34.448 23.9347 34.5713 24.8001 34.5713C26.327 34.5713 27.8383 34.1874 29.2151 33.4324C31.3708 32.2496 32.9374 30.299 33.6272 27.9376C34.3156 25.5762 34.0436 23.0887 32.8694 20.9469H32.8666ZM22.8284 8.11583L26.0479 14.1645L18.4134 18.3518V9.77744C18.4134 7.95576 17.8823 6.2559 16.9659 4.82518C19.3299 4.72178 21.6401 5.94709 22.8298 8.11441L22.8284 8.11583ZM9.20672 3.40439C12.7209 3.40439 15.5806 6.2644 15.5806 9.77886V16.1533H2.83284V9.77886C2.83284 6.2644 5.69259 3.40439 9.20672 3.40439ZM9.20672 31.7354C5.69259 31.7354 2.83284 28.8753 2.83284 25.3609V18.9864H15.5806V25.3609C15.5806 28.8753 12.7209 31.7354 9.20672 31.7354ZM30.9048 27.1443C30.4275 28.779 29.3425 30.1304 27.8496 30.9492C26.3567 31.7679 24.6329 31.9549 23.0012 31.4804C21.3667 31.003 20.0154 29.9179 19.2052 28.4405L18.3072 26.7548C18.3766 26.3001 18.412 25.8354 18.412 25.3623V21.5858L27.378 16.6689L30.3723 22.2955C31.191 23.7885 31.3793 25.511 30.9034 27.1457L30.9048 27.1443Z" fill="#ED3B39"/>
</svg>
