<svg width="40" height="41" viewBox="0 0 40 41" fill="none" xmlns="http://www.w3.org/2000/svg">
<path d="M25.876 19.3948C26.5256 19.3948 27.0522 19.9216 27.0522 20.5713C27.0522 21.2211 26.5256 21.7478 25.876 21.7478H24.7C22.7532 21.7478 21.1713 23.3312 21.1713 25.2772C21.1713 27.2267 22.75 28.8065 24.6978 28.8065H34.1211C37.3664 28.8065 40 31.4439 40 34.6889C40 37.9369 37.3649 40.5712 34.118 40.5712H15.2904C14.6408 40.5712 14.1142 40.0445 14.1142 39.3947C14.1142 38.7449 14.6408 38.2182 15.2904 38.2182H34.118C36.066 38.2182 37.6476 36.6371 37.6476 34.6889C37.6476 32.7428 36.0666 31.1595 34.1211 31.1595H24.6978C21.4506 31.1595 18.8189 28.5259 18.8189 25.2772C18.8189 22.0321 21.4536 19.3948 24.7 19.3948H25.876ZM32.4809 20.9102C32.2741 21.0718 32.0193 21.1595 31.7569 21.1595C31.4945 21.1595 31.2397 21.0718 31.0329 20.9102C30.9198 20.8208 30.8082 20.7296 30.698 20.6366C30.4135 20.3975 30.1342 20.1523 29.8603 19.9012C28.9984 19.1126 28.137 18.2322 27.3303 17.2783C24.9621 14.478 23.5236 11.6225 23.5236 8.80658C23.5236 4.25839 27.2097 0.571289 31.7569 0.571289C36.304 0.571289 39.9902 4.25839 39.9902 8.80658C39.9902 11.6225 38.5516 14.478 36.1834 17.2783C35.3768 18.2322 34.5153 19.1126 33.6534 19.9012C33.3795 20.1523 33.1002 20.3975 32.8158 20.6366C32.7056 20.7296 32.594 20.8208 32.4809 20.9102ZM32.0657 18.1651C32.8579 17.4402 33.6504 16.6302 34.3875 15.7588C36.4299 13.3435 37.6378 10.946 37.6378 8.80666C37.6378 5.55792 35.0049 2.92433 31.757 2.92433C28.509 2.92433 25.8761 5.55792 25.8761 8.80666C25.8761 10.946 27.0839 13.3436 29.1264 15.7588C29.8635 16.6303 30.6561 17.4403 31.4482 18.1651C31.5504 18.2586 31.6533 18.3513 31.757 18.4431C31.8606 18.3512 31.9635 18.2585 32.0657 18.1651ZM31.7569 12.336C29.8081 12.336 28.2284 10.7559 28.2284 8.80666C28.2284 6.85745 29.8081 5.27729 31.7569 5.27729C33.7056 5.27729 35.2854 6.85745 35.2854 8.80666C35.2854 10.7559 33.7056 12.336 31.7569 12.336ZM31.7569 9.98306C32.4065 9.98306 32.9331 9.45635 32.9331 8.80658C32.9331 8.15682 32.4065 7.6301 31.7569 7.6301C31.1073 7.6301 30.5807 8.15682 30.5807 8.80658C30.5807 9.45635 31.1073 9.98306 31.7569 9.98306ZM8.95725 40.322C8.75047 40.4835 8.49563 40.5713 8.23325 40.5713C7.97087 40.5713 7.71602 40.4835 7.50925 40.322C7.39617 40.2325 7.28452 40.1413 7.17433 40.0484C6.88987 39.8092 6.61058 39.564 6.33664 39.3129C5.47475 38.5243 4.61332 37.6439 3.80664 36.69C1.43855 33.8897 0 31.0343 0 28.2183C0 23.6701 3.68612 19.983 8.23329 19.983C12.7804 19.983 16.4666 23.6701 16.4666 28.2183C16.4666 31.0343 15.028 33.8897 12.6599 36.69C11.8532 37.6439 10.9917 38.5243 10.1299 39.3129C9.85592 39.564 9.57662 39.8092 9.29217 40.0484C9.18199 40.1414 9.07034 40.2326 8.95725 40.322ZM8.54204 37.5768C9.33419 36.852 10.1267 36.042 10.8638 35.1705C12.9063 32.7553 14.1142 30.3578 14.1142 28.2184C14.1142 24.9697 11.4812 22.3361 8.23329 22.3361C4.98534 22.3361 2.35239 24.9697 2.35239 28.2184C2.35239 30.3578 3.56022 32.7554 5.60276 35.1705C6.33985 36.0421 7.13239 36.8521 7.92453 37.5768C8.02673 37.6703 8.12968 37.763 8.23337 37.8549C8.33698 37.763 8.43987 37.6703 8.54204 37.5768ZM8.23329 31.7477C6.28455 31.7477 4.70478 30.1675 4.70478 28.2183C4.70478 26.2691 6.28455 24.689 8.23329 24.689C10.182 24.689 11.7618 26.2691 11.7618 28.2183C11.7618 30.1675 10.182 31.7477 8.23329 31.7477ZM8.23329 29.3948C8.88289 29.3948 9.40948 28.8681 9.40948 28.2183C9.40948 27.5686 8.88289 27.0418 8.23329 27.0418C7.58368 27.0418 7.05709 27.5686 7.05709 28.2183C7.05709 28.8681 7.58368 29.3948 8.23329 29.3948Z" fill="#ED3B39"/>
</svg>
