<svg width="34" height="35" viewBox="0 0 34 35" fill="none" xmlns="http://www.w3.org/2000/svg">
<path d="M34 14.738C34.0001 14.6346 33.9887 14.5315 33.966 14.4306L32.1243 6.11764C31.7822 4.53981 30.9079 3.12761 29.6482 2.11781C28.3884 1.10801 26.8198 0.562029 25.2053 0.571408H8.79467C7.18116 0.563333 5.61387 1.10991 4.3553 2.1196C3.09673 3.12929 2.22331 4.54077 1.88133 6.11764L0.0340019 14.4306C0.0113467 14.5315 -5.61848e-05 14.6346 1.93998e-06 14.738V16.1547C-0.00114104 17.5339 0.502807 18.8659 1.41667 19.8989V27.488C1.41892 29.3659 2.16592 31.1663 3.49381 32.4942C4.82171 33.822 6.62208 34.569 8.5 34.5713H25.5C27.3779 34.569 29.1783 33.822 30.5062 32.4942C31.8341 31.1663 32.5811 29.3659 32.5833 27.488V19.8989C33.4972 18.8659 34.0011 17.5339 34 16.1547V14.738ZM2.83333 14.8924L4.64667 6.73247C4.85215 5.7865 5.37628 4.93979 6.13135 4.33403C6.88643 3.72827 7.82664 3.4002 8.79467 3.40473H9.91667V7.65472C9.91667 8.03044 10.0659 8.39077 10.3316 8.65645C10.5973 8.92212 10.9576 9.07138 11.3333 9.07138C11.7091 9.07138 12.0694 8.92212 12.3351 8.65645C12.6007 8.39077 12.75 8.03044 12.75 7.65472V3.40473H21.25V7.65472C21.25 8.03044 21.3993 8.39077 21.6649 8.65645C21.9306 8.92212 22.2909 9.07138 22.6667 9.07138C23.0424 9.07138 23.4027 8.92212 23.6684 8.65645C23.9341 8.39077 24.0833 8.03044 24.0833 7.65472V3.40473H25.2053C26.1734 3.4002 27.1136 3.72827 27.8686 4.33403C28.6237 4.93979 29.1479 5.7865 29.3533 6.73247L31.1667 14.8924V16.1547C31.1667 16.9061 30.8682 17.6268 30.3368 18.1581C29.8054 18.6895 29.0848 18.988 28.3333 18.988H26.9167C26.1652 18.988 25.4446 18.6895 24.9132 18.1581C24.3818 17.6268 24.0833 16.9061 24.0833 16.1547C24.0833 15.779 23.9341 15.4186 23.6684 15.153C23.4027 14.8873 23.0424 14.738 22.6667 14.738C22.2909 14.738 21.9306 14.8873 21.6649 15.153C21.3993 15.4186 21.25 15.779 21.25 16.1547C21.25 16.9061 20.9515 17.6268 20.4201 18.1581C19.8888 18.6895 19.1681 18.988 18.4167 18.988H15.5833C14.8319 18.988 14.1112 18.6895 13.5799 18.1581C13.0485 17.6268 12.75 16.9061 12.75 16.1547C12.75 15.779 12.6007 15.4186 12.3351 15.153C12.0694 14.8873 11.7091 14.738 11.3333 14.738C10.9576 14.738 10.5973 14.8873 10.3316 15.153C10.0659 15.4186 9.91667 15.779 9.91667 16.1547C9.91667 16.9061 9.61816 17.6268 9.0868 18.1581C8.55545 18.6895 7.83478 18.988 7.08333 18.988H5.66667C4.91522 18.988 4.19455 18.6895 3.6632 18.1581C3.13185 17.6268 2.83333 16.9061 2.83333 16.1547V14.8924ZM25.5 31.738H8.5C7.37283 31.738 6.29183 31.2902 5.4948 30.4932C4.69777 29.6961 4.25 28.6151 4.25 27.488V21.6414C4.71268 21.7612 5.18873 21.8217 5.66667 21.8213H7.08333C7.88774 21.8218 8.68297 21.6505 9.41588 21.319C10.1488 20.9874 10.8025 20.5033 11.3333 19.8989C11.8642 20.5033 12.5179 20.9874 13.2508 21.319C13.9837 21.6505 14.7789 21.8218 15.5833 21.8213H18.4167C19.2211 21.8218 20.0163 21.6505 20.7492 21.319C21.4821 20.9874 22.1358 20.5033 22.6667 19.8989C23.1975 20.5033 23.8512 20.9874 24.5841 21.319C25.317 21.6505 26.1123 21.8218 26.9167 21.8213H28.3333C28.8113 21.8217 29.2873 21.7612 29.75 21.6414V27.488C29.75 28.6151 29.3022 29.6961 28.5052 30.4932C27.7082 31.2902 26.6272 31.738 25.5 31.738Z" fill="#ED3B39"/>
</svg>
