<svg width="30" height="31" viewBox="0 0 30 31" fill="none" xmlns="http://www.w3.org/2000/svg">
<path d="M27.25 7.55126L18.5 1.64786C17.4677 0.946372 16.2482 0.571289 15 0.571289C13.7518 0.571289 12.5323 0.946372 11.5 1.64786L2.75001 7.55126C1.90207 8.1232 1.20778 8.89475 0.728239 9.798C0.248698 10.7013 -0.00138444 11.7085 5.76452e-06 12.7311V24.323C0.00199059 25.9795 0.661108 27.5677 1.83278 28.739C3.00445 29.9104 4.59301 30.5693 6.25 30.5713H23.75C25.407 30.5693 26.9956 29.9104 28.1672 28.739C29.3389 27.5677 29.998 25.9795 30 24.323V12.7311C30.0013 11.7085 29.7511 10.7013 29.2716 9.79808C28.7921 8.89485 28.0978 8.12328 27.25 7.55126ZM22.5 28.072H7.5V16.825C7.5 16.1621 7.7634 15.5264 8.23224 15.0577C8.70108 14.589 9.33696 14.3257 10 14.3257H20C20.663 14.3257 21.2989 14.589 21.7678 15.0577C22.2366 15.5264 22.5 16.1621 22.5 16.825V28.072ZM27.5 24.323C27.4999 25.0982 27.2594 25.8542 26.8117 26.4871C26.364 27.12 25.731 27.5986 25 27.857V16.825C25 15.4993 24.4732 14.2279 23.5355 13.2904C22.5978 12.353 21.3261 11.8264 20 11.8264H10C8.67392 11.8264 7.40215 12.353 6.46447 13.2904C5.52679 14.2279 5 15.4993 5 16.825V27.857C4.26896 27.5986 3.63601 27.12 3.1883 26.4871C2.74058 25.8542 2.50012 25.0982 2.50001 24.323V12.7311C2.49997 12.1174 2.65063 11.5131 2.93875 10.9712C3.22688 10.4293 3.64366 9.96646 4.1525 9.6232L12.9025 3.72105C13.521 3.30033 14.2519 3.07534 15 3.07534C15.7481 3.07534 16.479 3.30033 17.0975 3.72105L25.8475 9.6232C26.3563 9.96646 26.7731 10.4293 27.0612 10.9712C27.3494 11.5131 27.5 12.1174 27.5 12.7311V24.323ZM17.5 24.323C17.5 24.6544 17.3683 24.9723 17.1339 25.2066C16.8995 25.441 16.5815 25.5726 16.25 25.5726H13.75C13.4185 25.5726 13.1005 25.441 12.8661 25.2066C12.6317 24.9723 12.5 24.6544 12.5 24.323C12.5 23.9915 12.6317 23.6737 12.8661 23.4393C13.1005 23.205 13.4185 23.0733 13.75 23.0733H16.25C16.5815 23.0733 16.8995 23.205 17.1339 23.4393C17.3683 23.6737 17.5 23.9915 17.5 24.323Z" fill="#ED3B39"/>
</svg>
